<svg
      xmlns="http://www.w3.org/2000/svg"
      width="700"
      height="700"
      fill="none"
      className="league"
      version="1.1"
      viewBox="0 0 700 700"
    >
      <g
        fill="#c28f2c"
        clipPath="url(#clip0)"
        transform="matrix(6.21803 0 0 6.21803 85.727 250.506)"
      >
        <path d="M59.726 17.27v14.479h-3.203l-6.92-9.409v9.409h-3.068V18.623l-.701-1.353H49.8l6.856 9.539v-9.54z"></path>
        <path d="M27.834 32c1.057.005 2.033-.173 2.928-.533a7.036 7.036 0 002.32-1.495 6.901 6.901 0 001.533-2.262c.266-.627.438-1.29.516-1.986.03-.27.083-1.363.027-2.022h-7.293l-1.298 2.611h5.203a3.434 3.434 0 01-1.361 2.016c-.707.512-1.553.766-2.538.761a4.38 4.38 0 01-1.773-.37 4.517 4.517 0 01-2.384-2.446 4.596 4.596 0 01-.339-1.787 4.606 4.606 0 01.358-1.784 4.483 4.483 0 012.4-2.413 4.427 4.427 0 011.765-.342c.859.004 1.617.194 2.277.568.66.375 1.171.914 1.533 1.617l2.88-1.347c-.6-1.172-1.485-2.091-2.658-2.758-1.172-.666-2.504-1.003-3.996-1.01a7.723 7.723 0 00-3.001.573 7.695 7.695 0 00-2.468 1.597 7.735 7.735 0 00-1.67 2.376 7.011 7.011 0 00-.628 2.906 7.12 7.12 0 00.587 2.913c.397.91.938 1.707 1.624 2.392a7.62 7.62 0 002.43 1.621 7.768 7.768 0 003.027.603z"></path>
        <path d="M3.907 17.269H0l.737 1.497v11.488L0 31.75h8.966l.813-2.833H3.907z"></path>
        <path d="M10.861 31.75h8.74v-2.832h-5.559v-3.177h4.297l.779-2.723h-5.076V20.09H19.6v-2.82h-8.739z"></path>
        <path d="M36.268 31.75h8.739v-2.832h-5.558v-3.177h4.298l.777-2.723H39.45V20.09h5.558v-2.82h-8.739z"></path>
        <path d="M41.866 14.982c1.057.006 2.032-.172 2.928-.532a7.033 7.033 0 002.32-1.495 7.069 7.069 0 002.049-4.248c.03-.27.083-1.362.027-2.021h-7.293l-1.299 2.609h5.204a3.434 3.434 0 01-1.361 2.016c-.707.512-1.553.766-2.539.761a4.382 4.382 0 01-1.772-.37 4.52 4.52 0 01-2.384-2.446 4.598 4.598 0 01-.34-1.787 4.605 4.605 0 01.358-1.784 4.483 4.483 0 012.4-2.413 4.428 4.428 0 011.765-.342c.86.004 1.618.194 2.278.568.66.375 1.17.914 1.533 1.617l2.88-1.347c-.6-1.172-1.486-2.091-2.658-2.758C44.79.344 43.458.007 41.966 0a7.723 7.723 0 00-3.002.572 7.696 7.696 0 00-2.468 1.598 7.736 7.736 0 00-1.67 2.375 7.01 7.01 0 00-.627 2.907 7.119 7.119 0 00.587 2.913c.397.91.938 1.707 1.624 2.391a7.621 7.621 0 002.43 1.622c.933.399 1.942.6 3.026.604z"></path>
        <path d="M3.907.252H0L.737 1.75v11.488L0 14.734h8.966l.813-2.834H3.907z"></path>
        <path d="M10.861 14.734h8.74v-2.833h-5.559V8.725h4.297l.779-2.723h-5.076V3.073H19.6V.253h-8.739z"></path>
        <path d="M63.569 14.734h8.738v-2.833H66.75V8.725h4.297l.777-2.723H66.75V3.073h5.557V.253h-8.738z"></path>
        <path d="M29.397.252h-4.52l.957 1.847-5.22 12.636h3.252l1.108-2.825h5.878l1.14 2.825h3.313zm-3.338 8.889l1.909-4.866L29.8 9.14z"></path>
        <path d="M80.61 4.235v6.513h1.637V8.546h1.69l.408-1.432h-2.098V5.71h2.4V4.235z"></path>
        <path d="M76.563 4.105c-1.908 0-3.459 1.52-3.459 3.386 0 1.868 1.551 3.387 3.459 3.387 1.907 0 3.457-1.52 3.457-3.386 0-1.868-1.552-3.387-3.458-3.387zm0 5.201c-1.02 0-1.85-.814-1.85-1.815 0-1 .83-1.814 1.85-1.814s1.85.814 1.85 1.815c0 1-.83 1.814-1.85 1.814z"></path>
        <path d="M56.24 14.985c-.93 0-1.762-.141-2.495-.423a5.095 5.095 0 01-1.86-1.21 5.35 5.35 0 01-1.174-1.901c-.274-.744-.412-1.57-.412-2.48V.253h3.214v8.555c0 .979.232 1.75.697 2.315.465.565 1.142.847 2.03.847.888 0 1.565-.282 2.03-.847.465-.565.698-1.336.698-2.315V.252h3.213v8.72c0 .91-.138 1.737-.412 2.48a5.371 5.371 0 01-1.173 1.901 5.11 5.11 0 01-1.86 1.21c-.735.28-1.566.422-2.496.422z"></path>
        <path d="M80.837 23.162l-2-.375c-.9-.17-1.396-.663-1.396-1.39 0-.991 1.04-1.584 2.045-1.584.343 0 2.046.087 2.397 1.747l2.757-1.315c-.407-1.181-1.625-3.229-5.174-3.229-2.862 0-5.19 2.055-5.19 4.58 0 2.14 1.465 3.711 3.918 4.2l2.002.395c.988.193 1.579.742 1.579 1.469 0 .94-.815 1.51-2.126 1.524-1.59.016-2.876-1.14-3.075-2.277l-2.65 1.445c.608 1.933 2.48 3.65 5.705 3.65 2.029 0 3.281-.766 3.974-1.409.89-.823 1.4-1.957 1.4-3.11-.003-2.18-1.598-3.834-4.166-4.32z"></path>
        <path d="M73.045 21.69a7.155 7.155 0 00-1.613-2.292 7.63 7.63 0 00-2.394-1.528c-.915-.372-2.217-.604-2.912-.604h-5.011v14.48h5.001a7.695 7.695 0 005.31-2.075 7.124 7.124 0 001.617-2.289c.395-.88.592-1.828.594-2.846a6.91 6.91 0 00-.592-2.847zm-3 4.535a4.3 4.3 0 01-.918 1.361c-.388.385-.849.691-1.384.917a4.35 4.35 0 01-1.71.34h-1.751V20.22h1.757c.606 0 1.175.114 1.71.34.534.228.995.534 1.383.92.386.385.691.842.917 1.372.224.53.338 1.09.336 1.68a4.235 4.235 0 01-.34 1.692z"></path>
      </g>
      <defs></defs>
      <g
        fill="#c28f2c"
        clipPath="url(#clip0)"
        transform="translate(139.21 768.924) scale(14.05154)"
      >
        <path d="M1.806 9.75A14.477 14.477 0 000 16.768c0 2.541.655 4.933 1.806 7.02z"></path>
        <path d="M15 2.022a15.36 15.36 0 00-3.531.414v2.321A12.992 12.992 0 0115 4.267c7.022 0 12.715 5.58 12.715 12.463 0 3.1-1.158 5.936-3.069 8.116l-.362 1.272-.803 2.815c3.937-2.657 6.521-7.114 6.521-12.162C30 8.623 23.284 2.021 15 2.021z"></path>
        <path d="M11.469 24.42h11.756c1.947-2 3.146-4.707 3.146-7.69 0-6.155-5.09-11.144-11.371-11.144-1.233 0-2.418.196-3.531.55z"></path>
        <path d="M10.109 0H1.55l1.616 3.298v25.406L1.55 32h19.642l1.782-6.243H10.109z"></path>
      </g>
    </svg>