<svg
      xmlns="http://www.w3.org/2000/svg"
      width="700"
      height="700"
      version="1.1"
      viewBox="0 0 700 700"
    >
      <path
        fill="#b03336"
        fillOpacity="1"
        strokeWidth="5.312"
        d="M969.175 409.616l-8.498-21.777 81.798 4.249-3.718 35.057zm19.653-168.377l-114.2 54.178 17.529 81.267h23.37l-3.717-58.427 3.187-1.062 14.341 59.49h23.902l-.53-71.176 3.186-1.062 12.217 72.237h26.027l5.842-85.516 3.718-1.594 6.374 87.11h33.463l12.217-118.98zm450.955 165.722l-32.401-5.312v-4.25l31.338-1.062-.53-7.967h-39.838l-2.124 20.184 32.931 5.843v3.718l-34.525 1.593-1.062 7.437h48.335zm-310.198-3.187l-.53 7.436 11.685.53v7.437l-24.965-.531 1.062-21.778 33.995-.53-.531-7.968h-44.087l-3.718 38.775h49.93l-1.063-23.903zm211.933 14.34v-6.904l23.371-.531v-7.437l-23.902-.53v-6.906l31.338-.531v-7.967h-42.492l-1.063 39.837h44.618l-.532-7.968zm-33.994 9.03l-4.25-39.305h-11.154l-16.466 18.59-16.466-18.59h-11.154l-3.718 39.306h13.279l1.062-25.496 16.997 17.528 16.997-17.528 1.063 25.496zm-56.303-183.25h-26.558l-2.125 121.636h31.87zm108.356 0h-82.86l-3.187 121.636h91.89zm-25.495 95.078l-29.214 1.062-1.593-71.706 30.807 1.062zm124.822-68.52l-3.187-26.558h-81.798l1.062 23.371 26.027 1.063 2.656 97.202h32.4l-9.56-96.14zM1172.61 365.53h35.057l-22.84-54.71 18.06-10.091-12.217-56.835h-89.235l-3.187 26.558 20.184-.53-9.56 96.14h31.338l1.062-30.808 22.309-12.217zm-29.745-97.202l25.496-.531 3.187 24.433-29.745 13.81zm69.051 158.817h13.279l-10.623-39.306h-31.87l-10.623 39.306h13.28l2.124-10.092 21.777.53zm-22.309-17.529l2.656-12.748 12.748-.53 2.656 12.747z"
      ></path>
      <path
        fill="#252423"
        fillOpacity="1"
        strokeWidth="5.312"
        d="M152.409 425.425l-8.499-21.778 81.799 4.25-3.718 35.056zm19.653-168.378l-114.2 54.178 17.528 81.268h23.371l-3.718-58.428 3.187-1.062 14.342 59.49h23.902l-.531-71.176 3.187-1.062 12.216 72.238h26.027l5.843-85.517 3.718-1.593 6.374 87.11h33.463l12.217-118.98zM623.015 422.77l-32.4-5.312v-4.249l31.338-1.062-.531-7.968h-39.837l-2.125 20.184 32.932 5.843v3.718l-34.525 1.594-1.063 7.436h48.336zm-310.197-3.187l-.531 7.436 11.685.531v7.437l-24.964-.532 1.062-21.777 33.994-.531-.53-7.968h-44.087l-3.718 38.775h49.929l-1.063-23.902zm211.933 14.341v-6.905l23.37-.531v-7.436l-23.902-.531v-6.905l31.339-.532v-7.967h-42.493l-1.062 39.837h44.617l-.531-7.967zm-33.995 9.03l-4.249-39.306h-11.154l-16.466 18.59-16.466-18.59h-11.155l-3.718 39.306h13.28l1.062-25.496 16.997 17.529 16.997-17.529 1.062 25.496zm-56.303-183.25h-26.558l-2.124 121.635h31.87zm108.357 0h-82.86l-3.188 121.635h91.89zm-25.496 95.077l-29.213 1.063-1.594-71.707 30.807 1.063zm124.823-68.52l-3.187-26.557h-81.799l1.063 23.37 26.026 1.063 2.656 97.202h32.401l-9.56-96.14zm-286.295 95.078h35.056l-22.84-54.709 18.06-10.092-12.217-56.834h-89.235l-3.187 26.558 20.184-.531-9.56 96.14h31.338l1.062-30.808 22.309-12.216zm-29.745-97.202l25.495-.531 3.187 24.433-29.744 13.81zm69.05 158.817h13.28l-10.624-39.306h-31.87l-10.622 39.306h13.279l2.124-10.092 21.778.531zm-22.308-17.528l2.656-12.748 12.748-.531 2.655 12.748z"
      ></path>
    </svg>